<?xml version="1.0" encoding="UTF-8"?>
<svg id="Layer_1" data-name="Layer 1" xmlns="http://www.w3.org/2000/svg" viewBox="0 0 100 100">
  <path d="m57.74,70.3c.2-.02.39-.05.39-.05.35-.06.6-.13.68-.15.48-.11.97-.2,1.46-.29,1.01-.19,2.02-.44,3.01-.75,2.77-.85,5.46-2.16,7.48-4.29,1.09-1.15,1.92-2.51,2.6-3.93,2.56-5.35,2.95-11.91.39-17.33-.44-.93-.95-1.82-1.54-2.66-.07-.09-.73-.81-.7-.91,1.69-6.07-.49-10.54-.49-10.54-5.35-.04-10.94,4.15-10.94,4.15-9.79-3.25-20.23-.08-20.23-.08-6.09-4.19-10.77-4.07-10.77-4.07-1.85,3.78-.66,10.54-.66,10.54-5.43,6.47-4.65,17.17-.7,23.22,3.95,6.04,15.06,7.22,15.06,7.22.51.03.91.05,1.11.06,0,0,8.43.41,13.87-.15Z"/>
</svg>