<?xml version="1.0" encoding="UTF-8"?>
<svg id="Layer_1" data-name="Layer 1" xmlns="http://www.w3.org/2000/svg" viewBox="0 0 100 100">
  <path d="m37.42,71.62v-29.55h-9.47v29.55h9.47,0Zm-4.54-33.33c3.38,0,5.48-2.24,5.48-5.03-.06-2.86-2.1-5.03-5.41-5.03s-5.48,2.17-5.48,5.03,2.1,5.03,5.35,5.03h.06Zm10.66,33.33h9.41v-16.36c0-.87.06-1.75.31-2.38.68-1.75,2.22-3.56,4.8-3.56,3.38,0,4.74,2.69,4.74,6.62v15.67h9.85v-16.77c0-8.98-4.73-13.16-11.05-13.16-5.18,0-7.45,2.93-8.71,4.93h.06v-4.55h-9.41c.12,2.77,0,29.55,0,29.55h0Z"/>
</svg>